<svg xmlns="http://www.w3.org/2000/svg" xmlns:xlink="http://www.w3.org/1999/xlink" width="51" height="9" viewBox="0 0 51 9"><defs><path id="a" d="M815 464a3 3 0 1 1 6 0 3 3 0 0 1-6 0z"/><path id="b" d="M861.07 460.11a.37.37 0 0 0-.53 0 .37.37 0 0 0 0 .52l2.68 2.69h-41.85a.36.36 0 0 0-.37.37c0 .2.16.37.37.37h41.85l-2.68 2.68a.39.39 0 0 0 0 .53c.15.15.39.15.53 0l3.32-3.32a.37.37 0 0 0 0-.52z"/></defs><g transform="translate(-814 -459)"><use fill="#fff" fill-opacity="0" stroke="#373737" stroke-miterlimit="50" xlink:href="#a"/></g><g transform="translate(-814 -459)"><use fill="#373737" xlink:href="#b"/><use fill="#fff" fill-opacity="0" stroke="#373737" stroke-miterlimit="50" stroke-width=".25" xlink:href="#b"/></g></svg>