<svg xmlns="http://www.w3.org/2000/svg" xmlns:xlink="http://www.w3.org/1999/xlink" width="86" height="86" viewBox="0 0 86 86"><defs><path id="a" d="M401 433.66v-6.98c0-.97.78-1.75 1.75-1.75h5.42c.72-3.63 3.67-6.6 7.66-7.5l5.86-1.33.27-.96a11.3 11.3 0 0 1-2.82-5.21 3.23 3.23 0 0 1-2.13-2.57l-.42-3.03a3.19 3.19 0 0 1 1.64-3.23c-.11-.9-.22-1.94-.22-2.52 0-4.7 2.71-6.89 8.76-7.05 2.64-1.53 5.37-1.53 6.57-1.53 3.24 0 5.61 1.01 7.05 3 2.25 3.13.61 5.29-.2 6.08l-.35.31-.09 1.75a3.25 3.25 0 0 1 1.55 3.18l-.42 3.04a3.26 3.26 0 0 1-1.93 2.52 11.18 11.18 0 0 1-2.98 5.4l.23.81 5.86 1.33c4 .91 6.94 3.88 7.66 7.51h5.42c.97 0 1.75.78 1.75 1.75v6.98a1.75 1.75 0 1 1-3.49 0v-5.24h-22.71v5.24a1.74 1.74 0 1 1-3.49 0v-5.24h-22.71v5.24a1.74 1.74 0 1 1-3.49 0zm10.77-8.73h34.35a6.54 6.54 0 0 0-4.83-4.1l-6.89-1.56a1.73 1.73 0 0 1-1.29-1.24l-.79-2.85c-.19-.67.05-1.38.58-1.82a7.64 7.64 0 0 0 2.77-5.06c.07-.9.83-1.59 1.74-1.59l.43-2.86c-.48 0-.9-.06-1.22-.41a1.4 1.4 0 0 1-.44-1.14l.2-3.81c.03-.46.23-.89.58-1.2l.83-.76c.23-.22.49-.47-.24-1.48-.74-1.03-2.16-1.55-4.22-1.55-1.04 0-3.21 0-5.11 1.23-.28.19-.6.28-.93.29-5.79.05-5.79 1.83-5.79 3.56 0 .61.23 2.51.38 3.57.07.5-.08 1-.42 1.38-.33.38-.81.6-1.31.6l.31 2.76c.91 0 1.87.51 1.94 1.41a7.59 7.59 0 0 0 2.64 4.96c.52.44.73 1.14.56 1.8l-.82 2.98a1.73 1.73 0 0 1-1.3 1.23l-6.88 1.56a6.54 6.54 0 0 0-4.83 4.1z"/><path id="b" d="M470.84 472.18c0 .97-.79 1.75-1.75 1.75h-80.34a1.74 1.74 0 0 1-1.75-1.74 8.74 8.74 0 0 1 6.62-8.49l4.62-1.16.18-.73a10.7 10.7 0 0 1-2.28-4.61 3.05 3.05 0 0 1-1.76-2.4l-.34-2.74a3.1 3.1 0 0 1 1.33-2.95 29.7 29.7 0 0 1-.17-2.21c0-4.26 2.34-6.34 7.35-6.52a10 10 0 0 1 5.51-1.38c3.48 0 5.22 1.54 6.07 2.84 1.87 2.85.49 4.85-.19 5.57l-.24.24-.07 1.51a3.07 3.07 0 0 1 1.26 2.91l-.34 2.73a3.1 3.1 0 0 1-1.59 2.34 10.48 10.48 0 0 1-2.42 4.8l.15.6 4.62 1.16c.46.11.92.27 1.38.48.47-.21.93-.36 1.39-.48l4.61-1.16.19-.73a10.6 10.6 0 0 1-2.29-4.61 3.05 3.05 0 0 1-1.76-2.4l-.34-2.74a3.12 3.12 0 0 1 1.34-2.95c-.09-.8-.18-1.74-.18-2.21 0-4.26 2.34-6.33 7.35-6.52a10.03 10.03 0 0 1 5.51-1.38c3.48 0 5.22 1.54 6.07 2.84 1.87 2.85.49 4.85-.19 5.57l-.24.24-.07 1.51a3.12 3.12 0 0 1 1.27 2.91l-.35 2.73a3.1 3.1 0 0 1-1.59 2.34 10.48 10.48 0 0 1-2.42 4.8l.15.6 4.62 1.16c.47.11.92.27 1.38.48.47-.21.93-.36 1.39-.48l4.62-1.16.18-.73a10.72 10.72 0 0 1-2.29-4.61 3.04 3.04 0 0 1-1.75-2.4l-.35-2.74a3.12 3.12 0 0 1 1.34-2.95c-.09-.8-.18-1.74-.18-2.21 0-4.26 2.34-6.33 7.36-6.52a10 10 0 0 1 5.5-1.38c3.48 0 5.22 1.54 6.07 2.84 1.88 2.85.5 4.85-.19 5.57l-.24.24-.07 1.51a3.12 3.12 0 0 1 1.27 2.91l-.34 2.73a3.11 3.11 0 0 1-1.6 2.34 10.56 10.56 0 0 1-2.41 4.8l.15.6 4.61 1.16a8.72 8.72 0 0 1 6.63 8.48zm-3.79-1.74a5.26 5.26 0 0 0-3.69-3.35l-5.63-1.41a1.73 1.73 0 0 1-1.27-1.27l-.65-2.57c-.15-.63.05-1.29.53-1.72a6.92 6.92 0 0 0 2.21-4.47c.07-.81.69-1.46 1.47-1.59l.3-2.42c-.47 0-.74.01-1.06-.33-.33-.35-.31-.6-.29-1.07l.17-3.42c.02-.43.2-.84.51-1.15l.68-.68c.14-.15.34-.37-.22-1.23-.21-.31-.83-1.26-3.15-1.26-.8 0-2.49 0-3.94 1.04-.29.22-.64.33-1 .33-4.42.05-4.42 1.43-4.42 3.04 0 .8.31 3.2.31 3.2.07.5-.09.99-.42 1.37-.27.31-.64.5-1.03.57l.26 2.03c.8.14 1.55.78 1.62 1.57a7.04 7.04 0 0 0 2.11 4.39c.46.43.66 1.08.5 1.69l-.67 2.69a1.76 1.76 0 0 1-1.27 1.27l-5.64 1.41c-.43.1-.87.29-1.35.57-.54.31-1.22.31-1.76 0a4.66 4.66 0 0 0-1.35-.57l-5.63-1.41a1.74 1.74 0 0 1-1.27-1.27l-.65-2.57c-.15-.63.05-1.29.53-1.72a6.95 6.95 0 0 0 2.21-4.47c.07-.82.69-1.47 1.47-1.59l.3-2.42c-.47-.01-.74.01-1.06-.34-.33-.34-.31-.59-.29-1.06l.17-3.42c.02-.44.2-.85.51-1.15l.68-.68c.14-.16.34-.37-.22-1.23-.21-.32-.83-1.26-3.15-1.26-.8 0-2.49 0-3.94 1.04-.29.21-.64.32-1 .33-4.42.04-4.42 1.43-4.42 3.03 0 .81.31 3.2.31 3.2.06.5-.09 1-.42 1.38-.27.3-.64.5-1.03.56l.25 2.03c.8.15 1.56.79 1.63 1.58a7 7 0 0 0 2.11 4.38c.46.44.65 1.09.5 1.7l-.67 2.68a1.77 1.77 0 0 1-1.28 1.28l-5.63 1.4c-.44.11-.88.3-1.35.57-.55.32-1.22.32-1.76 0a5.29 5.29 0 0 0-1.35-.57l-5.63-1.4a1.77 1.77 0 0 1-1.28-1.28l-.64-2.56c-.16-.63.05-1.29.53-1.73a6.97 6.97 0 0 0 2.21-4.46c.07-.82.68-1.47 1.47-1.59l.3-2.42c-.47-.01-.74.01-1.06-.34-.33-.35-.31-.59-.29-1.07l.17-3.42c.02-.43.2-.84.51-1.15l.68-.68c.14-.15.34-.36-.23-1.22-.2-.32-.82-1.27-3.14-1.27-.81 0-2.49 0-3.94 1.05-.29.21-.65.32-1 .32-4.42.05-4.42 1.43-4.42 3.04 0 .8.31 3.2.31 3.2a1.76 1.76 0 0 1-1.45 1.94l.25 2.03c.8.15 1.56.78 1.63 1.58.12 1.6.93 3.28 2.11 4.38.46.43.65 1.09.5 1.7l-.68 2.68a1.71 1.71 0 0 1-1.27 1.27l-5.63 1.41a5.18 5.18 0 0 0-3.68 3.33z"/></defs><g transform="translate(-386 -389)"><use fill="#5eb087" xlink:href="#a"/><use fill="#fff" fill-opacity="0" stroke="#404040" stroke-miterlimit="50" xlink:href="#a"/></g><g transform="translate(-386 -389)"><use fill="#5eb087" xlink:href="#b"/><use fill="#fff" fill-opacity="0" stroke="#404040" stroke-miterlimit="50" xlink:href="#b"/></g></svg>