<svg xmlns="http://www.w3.org/2000/svg" xmlns:xlink="http://www.w3.org/1999/xlink" width="81" height="85" viewBox="0 0 81 85"><defs><path id="a" d="M420 399.68a8.68 8.68 0 0 1 17.35 0 8.68 8.68 0 0 1-17.35 0zm3.47 0a5.21 5.21 0 1 0 10.42-.02 5.21 5.21 0 0 0-10.42.02z"/><path id="b" d="M444 402.68a8.68 8.68 0 0 1 17.35 0 8.68 8.68 0 0 1-17.35 0zm3.47 0a5.21 5.21 0 1 0 10.42-.02 5.21 5.21 0 0 0-10.42.02z"/><path id="c" d="M468.29 440.38l-2.23-17.78a8.69 8.69 0 0 0-8.6-7.6h-8.57c-.97 0-1.94.17-2.89.51a1.73 1.73 0 1 0 1.16 3.27 5.06 5.06 0 0 1 1.73-.31h8.57a5.21 5.21 0 0 1 5.16 4.56l2.22 17.78a1.72 1.72 0 0 1-1.72 1.95h-1.27c-.91 0-1.67.7-1.73 1.61l-1.62 22.69h-10.65l-.39-5.34a1.7 1.7 0 0 0-1.85-1.6c-.95.06-1.67.9-1.61 1.85l.5 6.94c.07.91.83 1.61 1.73 1.61h13.88c.91 0 1.67-.7 1.73-1.6l1.62-22.7a5.22 5.22 0 0 0 4.83-5.84z"/><path id="d" d="M443.85 456.48c-.33.41-.83.64-1.34.64h-5.9l-2.81 15.92a1.75 1.75 0 0 1-1.71 1.43h-6.95c-.84 0-1.55-.61-1.7-1.44l-2.81-15.92h-5.9a1.74 1.74 0 0 1-1.7-2.07l2.52-12.74a5.7 5.7 0 0 1-2.51-5.42l2.31-16.5c.54-4.76 4.35-8.38 8.84-8.38h8.87c4.49 0 8.3 3.62 8.84 8.43l2.3 16.41a5.74 5.74 0 0 1-2.51 5.47l2.52 12.74c.1.5-.03 1.03-.36 1.43zm-4.57-16.85c.96-.26 1.59-1.27 1.46-2.36l-2.29-16.4c-.35-3.1-2.68-5.4-5.41-5.4h-8.86c-2.73 0-5.05 2.3-5.4 5.35l-2.3 16.5c-.12 1.04.51 2.05 1.47 2.3a1.74 1.74 0 0 1 1.26 2.02l-2.37 12h5.24c.85 0 1.57.6 1.71 1.43L426.6 471h4.03l2.8-15.92c.15-.83.87-1.44 1.71-1.44h5.25l-2.38-12c-.17-.9.38-1.78 1.27-2.01z"/><path id="e" d="M411.72 460.12a1.71 1.71 0 0 0-1.85 1.6l-.39 5.34h-10.65l-1.62-22.69a1.74 1.74 0 0 0-1.73-1.61h-1.28c-.5 0-.96-.21-1.3-.58a1.74 1.74 0 0 1-.42-1.37l2.23-17.78a5.2 5.2 0 0 1 5.16-4.56h8.57c.39 0 .8.06 1.31.19.93.23 1.87-.31 2.12-1.23a1.73 1.73 0 0 0-1.24-2.12c-.8-.21-1.5-.31-2.19-.31h-8.57a8.7 8.7 0 0 0-8.61 7.6l-2.22 17.78a5.22 5.22 0 0 0 4.82 5.84l1.62 22.7c.07.9.83 1.61 1.73 1.61h13.88c.91 0 1.67-.71 1.74-1.62l.49-6.94a1.73 1.73 0 0 0-1.6-1.85z"/><path id="f" d="M396 402.68a8.68 8.68 0 0 1 17.35 0 8.68 8.68 0 0 1-17.35 0zm3.47 0a5.21 5.21 0 1 0 10.42-.02 5.21 5.21 0 0 0-10.42.02z"/></defs><g transform="translate(-388 -390)"><use fill="#5fb188" xlink:href="#a"/><use fill="#fff" fill-opacity="0" stroke="#373737" stroke-miterlimit="50" stroke-width=".7" xlink:href="#a"/></g><g transform="translate(-388 -390)"><use fill="#5fb188" xlink:href="#b"/><use fill="#fff" fill-opacity="0" stroke="#373737" stroke-miterlimit="50" stroke-width=".7" xlink:href="#b"/></g><g transform="translate(-388 -390)"><use fill="#5fb188" xlink:href="#c"/><use fill="#fff" fill-opacity="0" stroke="#373737" stroke-miterlimit="50" stroke-width=".7" xlink:href="#c"/></g><g transform="translate(-388 -390)"><use fill="#5fb188" xlink:href="#d"/><use fill="#fff" fill-opacity="0" stroke="#373737" stroke-miterlimit="50" stroke-width=".7" xlink:href="#d"/></g><g transform="translate(-388 -390)"><use fill="#5fb188" xlink:href="#e"/><use fill="#fff" fill-opacity="0" stroke="#373737" stroke-miterlimit="50" stroke-width=".7" xlink:href="#e"/></g><g transform="translate(-388 -390)"><use fill="#5fb188" xlink:href="#f"/><use fill="#fff" fill-opacity="0" stroke="#373737" stroke-miterlimit="50" stroke-width=".7" xlink:href="#f"/></g></svg>