<svg xmlns="http://www.w3.org/2000/svg" xmlns:xlink="http://www.w3.org/1999/xlink" width="86" height="86" viewBox="0 0 86 86"><defs><path id="a" d="M470.55 472.59c0 .79-.69 1.43-1.53 1.43h-27.49c-.85 0-1.53-.64-1.53-1.43 0-.78.68-1.42 1.53-1.42h1.52v-3.36c0-5.03 2.82-9.61 7.38-12.3-4.56-2.7-7.38-7.27-7.38-12.3v-3.36h-1.52c-.85 0-1.53-.64-1.53-1.43 0-.78.68-1.42 1.53-1.42h27.49c.84 0 1.53.64 1.53 1.42 0 .79-.69 1.43-1.53 1.43h-1.53v3.36c0 5.03-2.82 9.6-7.37 12.3 4.55 2.69 7.37 7.27 7.37 12.3v3.36h1.53c.84 0 1.53.64 1.53 1.42zm-16.5-18.51h2.45c4.83-1.91 7.94-6.15 7.94-10.87v-3.36h-18.33v3.36c0 4.72 3.1 8.96 7.94 10.87zm-7.94 17.09h18.33v-3.36c0-4.73-3.11-8.97-7.94-10.88h-2.45c-4.84 1.91-7.94 6.15-7.94 10.88z"/><path id="b" d="M442.29 435.66h-13.74v25.63H398V420h44.29zm-27.49-2.85h10.69v-9.96H414.8zm-13.75 0h10.7v-9.96h-10.7zm0 12.82h10.7v-9.97h-10.7zm10.7 2.84h-10.7v9.97h10.7zm13.74 0H414.8v9.97h10.69zm0-12.81H414.8v9.97h10.69zm13.75-12.81h-10.69v9.96h10.69z"/><path id="c" d="M435.87 469.73c0 .79-.68 1.42-1.52 1.42h-45.82c-.85 0-1.53-.63-1.53-1.42v-72.61c0-.79.68-1.43 1.53-1.43h7.63v-4.27c0-.78.69-1.42 1.53-1.42h10.69c.85 0 1.53.64 1.53 1.42v4.27h33.6v-4.27c0-.78.68-1.42 1.53-1.42h10.69c.84 0 1.52.64 1.52 1.42v4.27h7.64c.85 0 1.53.64 1.53 1.43v32.74c0 .79-.68 1.43-1.53 1.43-.84 0-1.53-.64-1.53-1.43v-17.08h-73.31v55.53h44.3c.84 0 1.52.63 1.52 1.42zm10.69-68.34h7.64v-8.54h-7.64zm-47.34 0h7.63v-8.54h-7.63zm-9.17 8.54h73.31v-11.39h-6.11v4.27c0 .79-.68 1.43-1.52 1.43h-10.69c-.85 0-1.53-.64-1.53-1.43v-4.27h-33.6v4.27c0 .79-.68 1.43-1.53 1.43h-10.69c-.84 0-1.53-.64-1.53-1.43v-4.27h-6.11z"/></defs><g transform="translate(-386 -389)"><use fill="#5fb188" xlink:href="#a"/><use fill="#fff" fill-opacity="0" stroke="#373737" stroke-miterlimit="50" stroke-width=".4" xlink:href="#a"/></g><g transform="translate(-386 -389)"><use fill="#5fb188" xlink:href="#b"/><use fill="#fff" fill-opacity="0" stroke="#373737" stroke-miterlimit="50" stroke-width=".4" xlink:href="#b"/></g><g transform="translate(-386 -389)"><use fill="#5fb188" xlink:href="#c"/><use fill="#fff" fill-opacity="0" stroke="#373737" stroke-miterlimit="50" stroke-width=".4" xlink:href="#c"/></g></svg>